<svg width="40" height="40" viewBox="0 0 40 40" fill="none" xmlns="http://www.w3.org/2000/svg">
<rect width="11.304" height="11.0402" transform="matrix(1 0 0 -1 28.696 40)" fill="white"/>
<rect width="11.304" height="11.0402" transform="matrix(1 0 0 -1 14.3479 25.5202)" fill="white"/>
<rect width="11.304" height="11.0402" transform="matrix(1 0 0 -1 0 40)" fill="#EB5757"/>
<rect width="11.304" height="11.0402" transform="matrix(1 0 0 -1 14.3479 40)" fill="#EB5757"/>
<rect width="11.304" height="11.0402" transform="matrix(1 0 0 -1 0 11.0402)" fill="white"/>
<rect width="11.304" height="11.0402" transform="matrix(1 0 0 -1 14.3479 11.0402)" fill="#56CCF2"/>
<rect width="11.304" height="11.0402" transform="matrix(1 0 0 -1 28.696 11.0402)" fill="#56CCF2"/>
<rect width="11.304" height="11.0402" transform="matrix(1 0 0 -1 28.696 25.5202)" fill="#56CCF2"/>
<rect width="11.304" height="11.0402" transform="matrix(1 0 0 -1 0 25.5202)" fill="#EB5757"/>
</svg>
