<svg width="32" height="32" viewBox="0 0 32 32" fill="none" xmlns="http://www.w3.org/2000/svg">
<path d="M28 16C28 9.375 22.625 4 16 4C9.375 4 4 9.375 4 16C4 22.625 9.375 28 16 28C22.625 28 28 22.625 28 16Z" stroke="#EEF2F7" stroke-width="2" stroke-miterlimit="10"/>
<path d="M13.52 20.9025L20.6731 16.5812C20.7728 16.5205 20.8552 16.4351 20.9124 16.3333C20.9696 16.2315 20.9996 16.1167 20.9996 16C20.9996 15.8832 20.9696 15.7684 20.9124 15.6667C20.8552 15.5649 20.7728 15.4795 20.6731 15.4187L13.52 11.0975C13.4175 11.0361 13.3005 11.003 13.1809 11.0017C13.0614 11.0005 12.9437 11.031 12.8399 11.0902C12.7361 11.1495 12.6499 11.2352 12.5902 11.3388C12.5304 11.4423 12.4993 11.5598 12.5 11.6794V20.3206C12.4993 20.4401 12.5304 20.5577 12.5902 20.6612C12.6499 20.7648 12.7361 20.8505 12.8399 20.9098C12.9437 20.969 13.0614 20.9995 13.1809 20.9982C13.3005 20.997 13.4175 20.9639 13.52 20.9025Z" fill="#EEF2F7"/>
</svg>
