<svg width="32" height="32" viewBox="0 0 32 32" fill="none" xmlns="http://www.w3.org/2000/svg">
<path d="M20 9.125C20 9.125 21.5225 8.375 16 8.375C14.0222 8.375 12.0888 8.96149 10.4443 10.0603C8.79981 11.1591 7.51809 12.7209 6.76121 14.5482C6.00433 16.3754 5.8063 18.3861 6.19215 20.3259C6.578 22.2657 7.53041 24.0475 8.92894 25.4461C10.3275 26.8446 12.1093 27.797 14.0491 28.1829C15.9889 28.5687 17.9996 28.3707 19.8268 27.6138C21.6541 26.8569 23.2159 25.5752 24.3147 23.9307C25.4135 22.2862 26 20.3528 26 18.375" stroke="#EEF2F7" stroke-width="2" stroke-miterlimit="10" stroke-linecap="round"/>
<path d="M16 3.625L21 8.625L16 13.625" stroke="#EEF2F7" stroke-width="2" stroke-linecap="round" stroke-linejoin="round"/>
</svg>
