<svg id="Layer_1" data-name="Layer 1" xmlns="http://www.w3.org/2000/svg" viewBox="0 0 100 100"><defs><style>.cls-1{fill:none;stroke:#4550e5;stroke-linecap:round;stroke-linejoin:round;}</style></defs><title>chip-head</title><path class="cls-1" d="M64.28,72.84V67.13h4.08c2.39,0,4.49-1.48,4.49-3.87V58.57s1.49,0,2.58,0c3.61-.15-2.71-9.83-2.71-11.26,0-5.16-3-8.85-6.92-11"/><path class="cls-1" d="M44.49,60.85h0a14.58,14.58,0,0,0,2.64,2.24v9.74"/><path class="cls-1" d="M37.44,31.76A15.7,15.7,0,1,1,38.5,54.93L35.92,57.5l-2-2,2.58-2.57A15.69,15.69,0,0,1,37.44,31.76Z"/><path class="cls-1" d="M32.16,55.2a1.06,1.06,0,0,1,.73-.3,1,1,0,0,1,.73.3l2.58,2.58a1,1,0,0,1,0,1.46l-7.87,7.87a2.85,2.85,0,0,1-4-4Z"/><path class="cls-1" d="M48.58,30.55A12.32,12.32,0,1,1,36.27,42.86,12.32,12.32,0,0,1,48.58,30.55Z"/><path class="cls-1" d="M44.3,46.43a.71.71,0,0,0,.71.72h7.14a.71.71,0,0,0,.71-.72V39.3a.71.71,0,0,0-.71-.72H45a.71.71,0,0,0-.71.72Z"/><line class="cls-1" x1="52.15" y1="38.58" x2="52.15" y2="36.44"/><line class="cls-1" x1="48.58" y1="38.58" x2="48.58" y2="36.44"/><line class="cls-1" x1="45.01" y1="38.58" x2="45.01" y2="36.44"/><line class="cls-1" x1="52.15" y1="49.29" x2="52.15" y2="47.15"/><line class="cls-1" x1="48.58" y1="49.29" x2="48.58" y2="47.15"/><line class="cls-1" x1="45.01" y1="49.29" x2="45.01" y2="47.15"/><line class="cls-1" x1="55.01" y1="39.3" x2="52.86" y2="39.3"/><line class="cls-1" x1="55.01" y1="42.86" x2="52.86" y2="42.86"/><line class="cls-1" x1="55.01" y1="46.43" x2="52.86" y2="46.43"/><line class="cls-1" x1="44.3" y1="39.3" x2="42.16" y2="39.3"/><line class="cls-1" x1="44.3" y1="42.86" x2="42.16" y2="42.86"/><line class="cls-1" x1="44.3" y1="46.43" x2="42.16" y2="46.43"/><line class="cls-1" x1="49.3" y1="44.29" x2="47.16" y2="44.29"/><path class="cls-1" d="M67.14,50.91a.52.52,0,1,1-.51.52A.52.52,0,0,1,67.14,50.91Z"/></svg>